PathFileType	4	(X/Y/Z)	C:/Users/opensim2020/Desktop/walking_exp_matlab/subject01_walking09_straight_03.trc	
DataRate	CameraRate	NumFrames	NumMarkers	Units	OrigDataRate	OrigDataStartFrame	OrigNumFrames	
100.00	100.00	6	43	mm	100.00	3148	348	
Frame#	Time	LFHD			RFHD			LBHD			RBHD			C7			T10			CLAV			STRN			RBAK			LSHO			LUPA			LELB			LFRM			LWRA			LWRB			LFIN			RSHO			RUPA			RELB			RFRM			RWRA			RWRB			RFIN			LASI			RASI			LPSI			RPSI			LTHI			LKNE			LTIB			LANK			LHEE			LTOE			RTHI			RKNE			RTIB			RANK			RHEE			RTOE			*39			*40			*41			*42			
		X1	Y1	Z1	X2	Y2	Z2	X3	Y3	Z3	X4	Y4	Z4	X5	Y5	Z5	X6	Y6	Z6	X7	Y7	Z7	X8	Y8	Z8	X9	Y9	Z9	X10	Y10	Z10	X11	Y11	Z11	X12	Y12	Z12	X13	Y13	Z13	X14	Y14	Z14	X15	Y15	Z15	X16	Y16	Z16	X17	Y17	Z17	X18	Y18	Z18	X19	Y19	Z19	X20	Y20	Z20	X21	Y21	Z21	X22	Y22	Z22	X23	Y23	Z23	X24	Y24	Z24	X25	Y25	Z25	X26	Y26	Z26	X27	Y27	Z27	X28	Y28	Z28	X29	Y29	Z29	X30	Y30	Z30	X31	Y31	Z31	X32	Y32	Z32	X33	Y33	Z33	X34	Y34	Z34	X35	Y35	Z35	X36	Y36	Z36	X37	Y37	Z37	X38	Y38	Z38	X39	Y39	Z39	X40	Y40	Z40	X41	Y41	Z41	X42	Y42	Z42	X43	Y43	Z43	

305	3.040	-1038.81921	760.93970	1677.91541	-925.23358	768.19037	1689.18335	-1035.24426	653.34467	1614.73853	-914.19995	658.19507	1624.62756	-981.72876	635.36292	1433.09192	-967.55322	601.71814	1141.65186	-977.23840	781.24518	1369.31250	-978.90247	826.01685	1214.02100	-896.47693	583.92133	1240.77173	-1139.98706	722.26141	1394.54370	-1220.77222	684.16168	1209.67297	-1217.92627	662.23608	1062.18835	-1241.48621	686.85791	951.17206	-1218.22949	746.46228	825.53882	-1247.79993	694.08588	828.87183	-1253.17297	732.15961	751.96051	-827.21088	716.96448	1398.21033	-717.06226	682.25012	1196.45764	-710.16364	701.49597	1071.72449	-684.85895	765.95490	967.52637	-714.07983	877.82971	883.86847	-671.21918	841.01141	871.00153	-678.24286	901.94934	809.75262	-1070.57129	777.12775	939.87573	-853.43707	764.68054	931.17059	-1028.86719	588.76239	946.38214	-884.41223	581.70892	948.69855	-1155.97485	822.12769	624.62177	-1143.06018	855.77319	495.68500	-1164.34705	851.50775	311.50925	-1129.97534	891.15283	89.48570	-1074.42590	860.61792	46.25220	-1141.46643	1037.36780	89.15641	-814.82263	688.68188	598.30115	-843.83240	683.66565	438.66031	-841.55640	609.80615	278.11951	-892.89612	553.97284	81.21096	-942.85394	498.96741	46.36140	-892.65051	689.24841	39.28787	-949.75671	751.41315	1719.34937	-3101.80664	1973.17737	1023.48798	-3140.60059	2012.63379	1022.18665			 
306	3.050	-1040.03662	767.52850	1677.22852	-926.42212	774.68146	1688.64404	-1036.57874	659.93347	1614.10364	-915.49054	664.63123	1624.06042	-983.05096	641.81866	1432.56360	-968.90228	608.08136	1141.09033	-978.24866	787.60974	1368.64600	-979.69244	832.34601	1213.34534	-897.81946	589.99091	1240.36340	-1141.21924	729.05389	1393.95093	-1221.86780	690.70044	1209.12231	-1218.99341	668.16400	1061.66101	-1242.59583	692.35205	950.71643	-1219.40051	751.37543	824.73920	-1248.87769	698.99792	828.30884	-1254.50244	736.68970	751.26898	-828.49530	722.96216	1397.59302	-718.27502	688.51550	1195.89563	-711.24237	708.01532	1071.25146	-685.94543	772.72162	967.13617	-715.06885	884.86755	883.84973	-672.14001	848.16284	870.98096	-679.16772	909.06537	809.64496	-1070.99646	784.00372	939.18726	-853.79095	770.31055	930.72467	-1030.25720	595.41028	945.67242	-885.95068	587.59296	948.19220	-1156.70361	828.32300	623.69452	-1143.91345	862.28296	495.19778	-1165.71814	861.64111	311.17694	-1131.72949	906.22351	89.80676	-1076.10205	876.13953	45.66156	-1141.57715	1052.75464	92.09174	-814.99036	692.96307	598.08331	-843.85089	687.02136	438.29987	-841.80420	611.75812	278.46078	-892.91821	554.22388	81.91216	-942.84357	499.08267	47.56216	-892.60895	689.31940	39.22828	-950.98163	757.89417	1718.79578	-3101.82959	1973.07373	1023.42120	-3140.63525	2012.50659	1022.03815			 
307	3.060	-1041.42322	774.12885	1676.67261	-927.68439	781.14307	1688.08069	-1037.94153	666.55640	1613.45422	-916.93982	671.08490	1623.41309	-984.44482	648.25531	1431.94775	-970.42328	614.45654	1140.53369	-979.33759	794.06555	1368.02783	-980.55945	838.68988	1212.69104	-899.29620	596.18793	1239.81775	-1142.47400	735.86212	1393.32178	-1223.11206	697.29407	1208.54541	-1220.24988	674.33624	1061.12268	-1243.75476	698.06250	950.13611	-1220.59436	756.62494	823.92957	-1250.12024	704.19751	827.68774	-1255.58008	741.61859	750.44379	-829.75232	728.94073	1396.96826	-719.59863	694.89819	1195.38916	-712.44080	714.49225	1070.67322	-687.08191	779.41559	966.71063	-716.05560	891.67773	883.54340	-673.42627	854.78687	870.38110	-680.24054	915.90308	809.32947	-1071.46155	790.96997	938.42407	-854.25653	776.10803	930.23065	-1031.72620	602.19904	944.97192	-887.64789	593.52002	947.53638	-1157.43127	834.93835	622.95966	-1144.78809	869.05756	494.86948	-1167.03906	871.35815	310.83203	-1133.31250	919.78918	90.10857	-1078.15320	889.88025	45.64071	-1141.64941	1066.66125	94.46523	-815.22150	696.98718	598.05164	-843.95789	690.34070	438.24057	-841.92383	613.66083	278.83463	-892.95459	554.39667	82.74317	-942.81885	499.19446	48.60010	-892.40900	689.45319	39.25412	-952.31720	764.35822	1718.17444	-3101.94702	1973.12622	1023.32709	-3140.64868	2012.45947	1021.99854			 
308	3.070	-1042.87988	780.69824	1676.01929	-929.11646	787.51782	1687.48547	-1039.49353	673.13464	1612.79443	-918.39343	677.46899	1622.83655	-986.16760	654.61292	1431.40112	-972.00250	620.93152	1139.89600	-980.53485	800.47260	1367.39819	-981.48401	845.05981	1212.04517	-900.91278	602.29169	1239.27441	-1143.87646	742.66559	1392.72021	-1224.44775	704.03088	1207.95386	-1221.51697	680.73798	1060.70300	-1244.98743	704.09735	949.59906	-1221.84631	762.09094	823.12146	-1251.33142	709.74146	827.10822	-1256.96082	746.84998	749.82312	-831.21051	735.02338	1396.47302	-721.03442	701.12885	1194.82361	-713.81842	721.04218	1070.09863	-688.31787	786.00830	966.26538	-717.06104	898.31647	883.16449	-674.64661	861.36737	869.95563	-681.30151	922.55975	808.97363	-1072.00671	798.04346	937.62311	-854.81812	782.06567	929.82025	-1033.40210	608.97644	944.22211	-889.19287	599.57806	947.22412	-1158.17834	841.85956	622.18225	-1145.70837	875.93628	494.37723	-1168.45215	880.68134	310.54489	-1134.85974	931.94452	90.21750	-1080.09204	902.03564	45.27072	-1141.55884	1079.06750	96.18203	-815.67383	701.19354	597.81653	-844.18909	693.65344	438.00720	-842.14478	615.64130	279.33023	-892.97552	555.10175	83.61066	-942.77783	499.48978	50.07607	-892.39502	689.52216	39.20872	-953.69629	770.87268	1717.58813	-3101.91553	1973.13867	1023.55170	-3140.48706	2012.56079	1022.00641			 
309	3.080	-1044.31543	787.29419	1675.37231	-930.56293	794.00549	1686.91235	-1041.06165	679.73639	1612.12366	-919.97778	683.89960	1622.21741	-987.90601	661.04431	1430.81409	-973.70831	627.39655	1139.29956	-981.77271	806.90387	1366.79785	-982.52704	851.52478	1211.45190	-902.67657	608.48431	1238.75916	-1145.28296	749.51550	1392.10779	-1225.90796	710.88159	1207.33228	-1222.90259	687.38409	1060.24011	-1246.39697	710.34735	948.94202	-1223.15320	767.92163	822.34357	-1252.79419	715.62427	826.47742	-1258.61279	752.63312	749.19934	-832.63428	741.05914	1395.95935	-722.58466	707.26233	1194.17346	-715.44568	727.48755	1069.44434	-689.70819	792.37872	965.63226	-718.20892	904.87946	882.64008	-675.78772	867.76294	869.45325	-682.45343	929.11548	808.52826	-1072.63696	805.16614	936.83557	-855.27545	788.16522	929.45447	-1035.10364	615.93500	943.45325	-891.00592	605.64795	946.74261	-1158.90613	849.54053	621.92798	-1146.47205	883.10553	494.00684	-1169.82263	889.64398	310.24512	-1136.31396	942.72144	90.23024	-1082.11841	912.54071	44.97558	-1141.49731	1090.00671	97.48737	-816.12360	705.38416	597.83087	-844.08014	697.14783	438.13797	-842.18536	617.80927	279.78406	-893.10486	555.21576	84.38336	-942.76526	499.69482	51.29046	-892.20862	689.70685	39.06781	-955.22919	777.26495	1717.00146	-3101.91895	1973.09583	1023.30988	-3140.59570	2012.61157	1022.03894			 
310	3.090	-1045.93115	793.87018	1674.81873	-932.11926	800.41608	1686.38635	-1042.74866	686.34741	1611.53540	-921.70770	690.32178	1621.67798	-989.71277	667.50562	1430.21289	-975.51959	633.94281	1138.68555	-983.18549	813.35925	1366.25708	-983.65436	857.91669	1210.87476	-904.59296	614.70453	1238.18311	-1146.79041	756.35321	1391.49011	-1227.44373	717.82172	1206.71558	-1224.40002	694.13696	1059.64526	-1247.88293	716.90613	948.37152	-1224.54187	774.04388	821.57825	-1254.25488	721.83533	825.88544	-1259.78357	758.53992	748.41949	-834.17090	747.01868	1395.37805	-724.24377	713.35638	1193.49939	-717.04095	733.83789	1068.86182	-691.22198	798.75067	965.12097	-719.38867	911.19922	881.99713	-677.21735	874.10718	868.89172	-683.63184	935.46118	807.91943	-1073.38354	812.35504	936.11230	-855.98792	794.43610	929.17261	-1036.94434	623.00195	942.68970	-893.04279	611.98596	946.17157	-1159.48706	857.27820	621.49371	-1146.88086	890.55157	493.68384	-1171.04175	898.16943	309.93671	-1137.68921	952.16736	89.95451	-1083.83032	921.79791	44.49084	-1141.20117	1099.61377	97.97079	-816.59778	710.17896	597.66956	-844.47784	700.57782	437.76910	-842.38623	619.83099	280.31607	-892.85382	555.78290	85.49451	-942.88281	499.76038	52.65956	-892.24048	689.64728	39.22795	-956.83093	783.73004	1716.46338	-3101.92896	1973.19678	1023.40094	-3140.71069	2012.54700	1022.01166			 
